<svg xmlns="http://www.w3.org/2000/svg" width="375" height="657"><defs><linearGradient id="a" x1="-19.87%" x2="117.594%" y1="-6.768%" y2="100%"><stop offset="0%" stop-color="#FFF" stop-opacity="0"/><stop offset="100%" stop-color="#C9F0FF"/></linearGradient><linearGradient id="b" x1="119.936%" x2="0%" y1="0%" y2="84.589%"><stop offset="0%" stop-color="#FFF" stop-opacity="0"/><stop offset="100%" stop-color="#C9F0FF"/></linearGradient><linearGradient id="c" x1="137.029%" x2="50%" y1="129.104%" y2="50%"><stop offset="0%" stop-color="#FFF" stop-opacity="0"/><stop offset="100%" stop-color="#C9F0FF"/></linearGradient><linearGradient id="d" x1="-97.01%" x2="65.921%" y1="148.218%" y2="50%"><stop offset="0%" stop-color="#FFF" stop-opacity="0"/><stop offset="100%" stop-color="#C9F0FF"/></linearGradient><linearGradient id="e" x1="-160.796%" x2="107.047%" y1="-224.453%" y2="70.702%"><stop offset="0%" stop-color="#FFF" stop-opacity="0"/><stop offset="100%" stop-color="#DEF5FE"/></linearGradient></defs><g fill="none" fill-rule="evenodd" transform="translate(-40 -3)"><path fill="url(#a)" d="M0 324c14.45-54.047 43.71-74.586 87.777-61.617 66.1 19.454 66.1 18.745 111.319-14.078 13.563-9.845 5.124-56.405-15.209-57.93-20.333-1.527-4.806-35.062 30.203-41.642 35.009-6.579-9.4-53.037-36.047-66.539-27.674-14.022 7.874-50.933 10.62-65.03C193.119-5.72 130.232-5.72 0 17.164V324z"/><path fill="url(#b)" d="M415 538c-26.188-.61-45.499-12.592-57.931-35.948-18.649-35.034-18.495-110.797-58.255-106.655-39.76 4.142-82.248-12.803-67.163-60.527 15.085-47.724 50.32-41.809 58.742-119.597 8.421-77.79-60.53 16.148-71.918-35.577-4.447-20.2 6.109-22.922-10.258-45.647-5.433-7.544-8.06-18.476-6.977-22.725C204.606 39.734 206.931 3.626 208.217 3c6.126-2.98 14.416-2 27.55-2 28.276 0 88.02.667 179.233 2v535z"/><rect width="16" height="16" x="75" y="641" fill="url(#c)" rx="1.263" transform="rotate(45 83 649)"/><path stroke="url(#d)" stroke-width="4.528" d="M97.025 458.05l8.337 16.673a2.264 2.264 0 0 1-2.025 3.277H86.663a2.264 2.264 0 0 1-2.025-3.277l8.337-16.673a2.264 2.264 0 0 1 4.05 0z" opacity=".543" transform="rotate(30 95 466)"/><rect width="13" height="13" x="258.692" y="442.521" fill="url(#e)" rx="1" transform="rotate(45 265.192 449.02)"/></g></svg>