<svg xmlns="http://www.w3.org/2000/svg" width="1440" height="718"><defs><linearGradient id="a" x1="137.029%" x2="50%" y1="129.104%" y2="50%"><stop offset="0%" stop-color="#FFF" stop-opacity="0"/><stop offset="100%" stop-color="#C9F0FF"/></linearGradient><linearGradient id="b" x1="-160.796%" x2="107.047%" y1="-224.453%" y2="70.702%"><stop offset="0%" stop-color="#FFF" stop-opacity="0"/><stop offset="100%" stop-color="#DEF5FE"/></linearGradient><linearGradient id="c" x1="-347.113%" x2="65.921%" y1="338.405%" y2="50%"><stop offset="0%" stop-color="#FFF" stop-opacity="0"/><stop offset="100%" stop-color="#C9F0FF"/></linearGradient><linearGradient id="d" x1="-97.01%" x2="65.921%" y1="148.218%" y2="50%"><stop offset="0%" stop-color="#FFF" stop-opacity="0"/><stop offset="100%" stop-color="#C9F0FF"/></linearGradient><linearGradient id="e" x1="-19.87%" x2="117.594%" y1="-6.768%" y2="100%"><stop offset="0%" stop-color="#FFF" stop-opacity="0"/><stop offset="100%" stop-color="#C9F0FF"/></linearGradient><linearGradient id="f" x1="119.936%" x2="0%" y1="0%" y2="84.589%"><stop offset="0%" stop-color="#FFF" stop-opacity="0"/><stop offset="100%" stop-color="#C9F0FF"/></linearGradient><linearGradient id="g" x1="-89.026%" x2="137.149%" y1="77.649%" y2="17.758%"><stop offset="0%" stop-color="#FFF" stop-opacity="0"/><stop offset="100%" stop-color="#C9F0FF"/></linearGradient></defs><g fill="none" fill-rule="evenodd" transform="translate(0 -20)"><rect width="38" height="38" x="955.87" y="574.87" fill="url(#a)" rx="3" transform="rotate(45 974.87 593.87)"/><rect width="17" height="17" x="507.521" y="361.042" fill="url(#b)" rx="1" transform="rotate(45 516.02 369.542)"/><path stroke="url(#c)" stroke-width="10" d="M1331.962 291.251l12.264 24.528a2 2 0 0 1-1.789 2.894h-24.528a2 2 0 0 1-1.788-2.894l12.264-24.528a2 2 0 0 1 3.577 0z" opacity=".543" transform="rotate(30 1330.173 303.173)"/><path stroke="url(#d)" stroke-width="10" d="M844.672 172.644l18.41 36.82a5 5 0 0 1-4.472 7.236h-36.82a5 5 0 0 1-4.472-7.236l18.41-36.82a5 5 0 0 1 8.944 0z" opacity=".543" transform="rotate(30 840.2 190.2)"/><path fill="url(#e)" d="M0 428c38.952-92.623 95.85-125.954 170.692-99.992 112.265 38.943 152.14 91.606 212.59 0 15.672-23.751 9.865-74.51-29.279-76.526-39.144-2.016-9.251-46.316 58.144-55.007 67.395-8.691-18.096-70.062-69.395-87.898-53.275-18.522 15.159-67.282 20.444-85.903 8.58-30.232-112.485-30.232-363.196 0V428z"/><path fill="url(#f)" d="M1440 738c-87.498-1.025-152.016-21.183-193.555-60.474-62.308-58.935-61.792-186.387-194.636-179.419-132.843 6.968-274.802-21.538-224.4-101.821 50.402-80.284 168.127-70.332 196.264-201.192 28.136-130.86-202.236 27.165-240.286-59.848-14.858-33.98 20.409-38.561-34.273-76.79-18.153-12.69-26.931-31.08-23.312-38.228 1.744-3.445 7.924 1.578 14.37 0 20.466-5.013 63.76 0 107.641 0H1440V738z"/><path fill="url(#g)" d="M520.396 612.23c8.7-1.82 11.409 7.778 27.275 7.778 15.866 0 29.975-9.065 49.61-1.072 19.636 7.994 35.523 32.21 15.406 27.541-11.882-2.758-26.578-11.167-46.816 4.842-20.239 16.008-32.349-14.56-47.511-9.869-15.163 4.692-6.735-27.386 2.036-29.22z"/></g></svg>