<svg xmlns="http://www.w3.org/2000/svg" xmlns:xlink="http://www.w3.org/1999/xlink" width="1035" height="739"><defs><rect id="b" width="960" height="600" rx="20"/><filter id="a" width="103.1%" height="105%" x="-1.6%" y="-2.5%" filterUnits="objectBoundingBox"><feOffset in="SourceAlpha" result="shadowOffsetOuter1"/><feGaussianBlur in="shadowOffsetOuter1" result="shadowBlurOuter1" stdDeviation="5"/><feColorMatrix in="shadowBlurOuter1" values="0 0 0 0 0 0 0 0 0 0.145098039 0 0 0 0 0.180392157 0 0 0 0.181838768 0"/></filter><path id="d" d="M20 0h920c11.046 0 20 8.954 20 20v44H0V20C0 8.954 8.954 0 20 0z"/><filter id="c" width="103.1%" height="146.9%" x="-1.6%" y="-23.4%" filterUnits="objectBoundingBox"><feOffset in="SourceAlpha" result="shadowOffsetOuter1"/><feGaussianBlur in="shadowOffsetOuter1" result="shadowBlurOuter1" stdDeviation="5"/><feColorMatrix in="shadowBlurOuter1" values="0 0 0 0 0 0 0 0 0 0.145098039 0 0 0 0 0.180392157 0 0 0 0.181838768 0"/></filter><linearGradient id="e" x1="14.811%" x2="75.996%" y1="-22.362%" y2="119.406%"><stop offset="0%" stop-color="#FAD961"/><stop offset="100%" stop-color="#FF52C1"/></linearGradient><linearGradient id="f" x1="50%" x2="50%" y1="0%" y2="100%"><stop offset="0%" stop-color="#00C7FA"/><stop offset="100%" stop-color="#007DFA"/></linearGradient><linearGradient id="g" x1="28.973%" x2="90.2%" y1="0%" y2="111.244%"><stop offset="0%" stop-color="#FF52C1"/><stop offset="100%" stop-color="#9952FF"/></linearGradient><rect id="i" width="320" height="512" rx="17.067"/><filter id="h" width="108.4%" height="105.3%" x="-4.2%" y="-2.6%" filterUnits="objectBoundingBox"><feOffset in="SourceAlpha" result="shadowOffsetOuter1"/><feGaussianBlur in="shadowOffsetOuter1" result="shadowBlurOuter1" stdDeviation="4.5"/><feColorMatrix in="shadowBlurOuter1" values="0 0 0 0 0 0 0 0 0 0.145098039 0 0 0 0 0.180392157 0 0 0 0.181838768 0"/></filter><path id="k" d="M17.067 0h285.866C312.36 0 320 7.641 320 17.067v37.546H0V17.067C0 7.64 7.641 0 17.067 0z"/><filter id="j" width="108.4%" height="149.4%" x="-4.2%" y="-24.7%" filterUnits="objectBoundingBox"><feOffset in="SourceAlpha" result="shadowOffsetOuter1"/><feGaussianBlur in="shadowOffsetOuter1" result="shadowBlurOuter1" stdDeviation="4.5"/><feColorMatrix in="shadowBlurOuter1" values="0 0 0 0 0 0 0 0 0 0.145098039 0 0 0 0 0.180392157 0 0 0 0.181838768 0"/></filter></defs><g fill="none" fill-rule="evenodd"><g transform="translate(10 10)"><use fill="#000" filter="url(#a)" xlink:href="#b"/><use fill="#FFF" xlink:href="#b"/><use fill="#000" filter="url(#c)" xlink:href="#d"/><use fill="#00252E" xlink:href="#d"/><rect width="200" height="24" x="72" y="20" fill="#E1E8EE" rx="5"/><g fill="#D8D8D8" transform="translate(864 22)"><rect width="32" height="4" rx="2"/><rect width="32" height="4" y="8" rx="2"/><rect width="32" height="4" y="16" rx="2"/></g><g transform="translate(72 138)"><circle cx="48" cy="48" r="48" fill="url(#e)"/><g fill="#E1E8EE" transform="translate(152 12)"><rect width="115" height="16" rx="3"/><rect width="400" height="8" y="32" rx="3"/><rect width="366.667" height="8" y="48" rx="3"/><rect width="333.333" height="8" y="64" rx="3"/></g><g fill="#A7B9C8" transform="translate(600 36)"><circle cx="12" cy="12" r="12"/><circle cx="76" cy="12" r="12"/><circle cx="44" cy="12" r="12"/><circle cx="108" cy="12" r="12"/><circle cx="140" cy="12" r="12"/></g></g><g transform="translate(72 274)"><circle cx="45" cy="45" r="45" fill="url(#f)"/><g fill="#E1E8EE" transform="translate(149 9)"><rect width="115" height="16" rx="3"/><rect width="400" height="8" y="32" rx="3"/><rect width="366.667" height="8" y="48" rx="3"/><rect width="333.333" height="8" y="64" rx="3"/></g><g fill="#A7B9C8" transform="translate(597 33)"><circle cx="12" cy="12" r="12"/><circle cx="76" cy="12" r="12"/><circle cx="44" cy="12" r="12"/></g></g><g transform="translate(72 417)"><circle cx="45" cy="45" r="45" fill="url(#g)"/><g fill="#E1E8EE" transform="translate(149 9)"><rect width="115" height="16" rx="3"/><rect width="400" height="8" y="32" rx="3"/><rect width="366.667" height="8" y="48" rx="3"/><rect width="333.333" height="8" y="64" rx="3"/></g><g fill="#A7B9C8" transform="translate(597 33)"><circle cx="12" cy="12" r="12"/><circle cx="76" cy="12" r="12"/><circle cx="44" cy="12" r="12"/><circle cx="108" cy="12" r="12"/></g></g></g><g transform="translate(706 218)"><use fill="#000" filter="url(#h)" xlink:href="#i"/><use fill="#FFF" xlink:href="#i"/></g><g transform="translate(706 218)"><use fill="#000" filter="url(#j)" xlink:href="#k"/><use fill="#00252E" xlink:href="#k"/></g><g transform="translate(738.133 236.773)"><rect width="104" height="20.48" fill="#E1E8EE" rx="4.267"/><g fill="#D8D8D8" transform="translate(226.427 1.707)"><rect width="27.307" height="3.413" rx="1.707"/><rect width="27.307" height="3.413" y="6.827" rx="1.707"/><rect width="27.307" height="3.413" y="13.653" rx="1.707"/></g></g><g transform="translate(738 326)"><circle cx="15" cy="15" r="15" fill="url(#e)"/><g fill="#E1E8EE" transform="translate(46 3)"><rect width="57.5" height="5.333" rx=".92"/><rect width="200" height="2.667" y="10.667" rx=".92"/><rect width="183.333" height="2.667" y="16" rx=".92"/><rect width="166.667" height="2.667" y="21.333" rx=".92"/></g></g><g transform="translate(738 464)"><circle cx="15" cy="15" r="15" fill="url(#e)"/><g fill="#E1E8EE" transform="translate(46 3)"><rect width="57.5" height="5.333" rx=".92"/><rect width="200" height="2.667" y="10.667" rx=".92"/><rect width="183.333" height="2.667" y="16" rx=".92"/><rect width="166.667" height="2.667" y="21.333" rx=".92"/></g></g><g transform="translate(738 372)"><g fill="#E1E8EE" transform="translate(46 3)"><rect width="57.5" height="5.333" rx=".92"/><rect width="200" height="2.667" y="10.667" rx=".92"/><rect width="183.333" height="2.667" y="16" rx=".92"/><rect width="166.667" height="2.667" y="21.333" rx=".92"/></g><circle cx="15" cy="15" r="15" fill="url(#f)"/></g><g transform="translate(738 510)"><g fill="#E1E8EE" transform="translate(46 3)"><rect width="57.5" height="5.333" rx=".92"/><rect width="200" height="2.667" y="10.667" rx=".92"/><rect width="183.333" height="2.667" y="16" rx=".92"/><rect width="166.667" height="2.667" y="21.333" rx=".92"/></g><circle cx="15" cy="15" r="15" fill="url(#f)"/></g><g transform="translate(738 418)"><g fill="#E1E8EE" transform="translate(46 3)"><rect width="57.5" height="5.333" rx=".92"/><rect width="200" height="2.667" y="10.667" rx=".92"/><rect width="183.333" height="2.667" y="16" rx=".92"/><rect width="166.667" height="2.667" y="21.333" rx=".92"/></g><circle cx="15" cy="15" r="15" fill="url(#g)"/></g><g transform="translate(738 556)"><g fill="#E1E8EE" transform="translate(46 3)"><rect width="57.5" height="5.333" rx=".92"/><rect width="200" height="2.667" y="10.667" rx=".92"/><rect width="183.333" height="2.667" y="16" rx=".92"/><rect width="166.667" height="2.667" y="21.333" rx=".92"/></g><circle cx="15" cy="15" r="15" fill="url(#g)"/></g><g transform="translate(738 602)"><circle cx="15" cy="15" r="15" fill="url(#e)"/><g fill="#E1E8EE" transform="translate(46 3)"><rect width="57.5" height="5.333" rx=".92"/><rect width="200" height="2.667" y="10.667" rx=".92"/><rect width="183.333" height="2.667" y="16" rx=".92"/><rect width="166.667" height="2.667" y="21.333" rx=".92"/></g></g><g transform="translate(738 648)"><g fill="#E1E8EE" transform="translate(46 3)"><rect width="57.5" height="5.333" rx=".92"/><rect width="200" height="2.667" y="10.667" rx=".92"/><rect width="183.333" height="2.667" y="16" rx=".92"/><rect width="166.667" height="2.667" y="21.333" rx=".92"/></g><circle cx="15" cy="15" r="15" fill="url(#f)"/></g></g></svg>