<svg xmlns="http://www.w3.org/2000/svg" width="1318" height="800"><defs><linearGradient id="a" x1="-45.25%" x2="97.789%" y1="-88.077%" y2="100%"><stop offset="0%" stop-color="#FF52C1"/><stop offset="4.09%" stop-color="#F952C5"/><stop offset="100%" stop-color="#9952FF" stop-opacity="0"/></linearGradient><linearGradient id="b" x1="-64.06%" x2="97.789%" y1="-121.906%" y2="100%"><stop offset="0%" stop-color="#FF52C1"/><stop offset="4.09%" stop-color="#F952C5"/><stop offset="100%" stop-color="#9952FF" stop-opacity="0"/></linearGradient><linearGradient id="c" x1="100%" x2="-24.893%" y1="111.373%" y2="-55.159%"><stop offset="0%" stop-color="#FF52C1"/><stop offset="100%" stop-color="#9952FF"/></linearGradient><linearGradient id="d" x1="21.681%" x2="145.861%" y1="5.006%" y2="145.591%"><stop offset="0%" stop-color="#FF52C1"/><stop offset="100%" stop-color="#9952FF"/></linearGradient><linearGradient id="e" x1="6.375%" x2="91.754%" y1="-15.195%" y2="105.701%"><stop offset="0%" stop-color="#FF52C1"/><stop offset="100%" stop-color="#9952FF"/></linearGradient></defs><g fill="none" fill-rule="evenodd"><path fill="url(#a)" d="M0 0h409.224l425.593 376v156.83z" transform="matrix(-1 0 0 1 834.817 0)"/><path fill="url(#b)" d="M0 367l641.153.138L1057.3 673.299V801z" transform="rotate(180 528.65 584)"/><circle cx="704" cy="563" r="49" stroke="url(#c)" stroke-width="17"/><rect width="38" height="38" x="1088.87" y="689.87" fill="url(#d)" opacity=".558" rx="3" transform="rotate(45 1107.87 708.87)"/><rect width="56" height="56" x="1251.598" y="75.598" fill="url(#d)" opacity=".503" rx="3" transform="rotate(45 1279.598 103.598)"/><rect width="32" height="32" x="918.627" y="47.627" fill="url(#d)" opacity=".558" rx="3" transform="rotate(45 934.627 63.627)"/><rect width="32" height="32" x="687.627" y="170.627" fill="url(#d)" opacity=".558" rx="3" transform="rotate(45 703.627 186.627)"/><rect width="17" height="17" x="1228.521" y="597.521" fill="url(#d)" opacity=".387" rx="1" transform="rotate(45 1237.02 606.02)"/><path fill="url(#e)" d="M91.477 739.477v-16.5a5 5 0 0 1 10 0v16.5h16.5a5 5 0 0 1 0 10h-16.5v16.5a5 5 0 1 1-10 0v-16.5h-16.5a5 5 0 1 1 0-10h16.5z" opacity=".211" transform="rotate(45 96.477 744.477)"/></g></svg>