<svg xmlns="http://www.w3.org/2000/svg" xmlns:xlink="http://www.w3.org/1999/xlink" width="709" height="506"><defs><rect id="b" width="657.638" height="410.833" rx="13.701"/><filter id="a" width="103.2%" height="105.1%" x="-1.6%" y="-2.6%" filterUnits="objectBoundingBox"><feOffset in="SourceAlpha" result="shadowOffsetOuter1"/><feGaussianBlur in="shadowOffsetOuter1" result="shadowBlurOuter1" stdDeviation="3.5"/><feColorMatrix in="shadowBlurOuter1" values="0 0 0 0 0 0 0 0 0 0.145098039 0 0 0 0 0.180392157 0 0 0 0.181838768 0"/></filter><path id="d" d="M13.7 0h630.237c7.567 0 13.7 6.134 13.7 13.7v30.122H0V13.701C0 6.134 6.134 0 13.7 0z"/><filter id="c" width="103.2%" height="147.9%" x="-1.6%" y="-24%" filterUnits="objectBoundingBox"><feOffset in="SourceAlpha" result="shadowOffsetOuter1"/><feGaussianBlur in="shadowOffsetOuter1" result="shadowBlurOuter1" stdDeviation="3.5"/><feColorMatrix in="shadowBlurOuter1" values="0 0 0 0 0 0 0 0 0 0.145098039 0 0 0 0 0.180392157 0 0 0 0.181838768 0"/></filter><linearGradient id="e" x1="14.811%" x2="75.996%" y1="-22.362%" y2="119.406%"><stop offset="0%" stop-color="#FAD961"/><stop offset="100%" stop-color="#FF52C1"/></linearGradient><linearGradient id="f" x1="50%" x2="50%" y1="0%" y2="100%"><stop offset="0%" stop-color="#00C7FA"/><stop offset="100%" stop-color="#007DFA"/></linearGradient><linearGradient id="g" x1="28.973%" x2="90.2%" y1="0%" y2="111.244%"><stop offset="0%" stop-color="#FF52C1"/><stop offset="100%" stop-color="#9952FF"/></linearGradient><path id="i" d="M11.691 0h195.83c6.457 0 11.692 5.234 11.692 11.691v327.195c0 6.457-5.235 11.692-11.692 11.692H11.691C5.234 350.578 0 345.343 0 338.886V11.691C0 5.234 5.234 0 11.691 0z"/><filter id="h" width="108.2%" height="105.1%" x="-4.1%" y="-2.6%" filterUnits="objectBoundingBox"><feOffset in="SourceAlpha" result="shadowOffsetOuter1"/><feGaussianBlur in="shadowOffsetOuter1" result="shadowBlurOuter1" stdDeviation="3"/><feColorMatrix in="shadowBlurOuter1" values="0 0 0 0 0 0 0 0 0 0.145098039 0 0 0 0 0.180392157 0 0 0 0.181838768 0"/></filter><path id="k" d="M11.691 0h195.83c6.457 0 11.692 5.234 11.692 11.691v25.704H0V11.691C0 5.234 5.234 0 11.691 0z"/><filter id="j" width="108.2%" height="148.1%" x="-4.1%" y="-24.1%" filterUnits="objectBoundingBox"><feOffset in="SourceAlpha" result="shadowOffsetOuter1"/><feGaussianBlur in="shadowOffsetOuter1" result="shadowBlurOuter1" stdDeviation="3"/><feColorMatrix in="shadowBlurOuter1" values="0 0 0 0 0 0 0 0 0 0.145098039 0 0 0 0 0.180392157 0 0 0 0.181838768 0"/></filter></defs><g fill="none" fill-rule="evenodd"><g transform="translate(7 7)"><use fill="#000" filter="url(#a)" xlink:href="#b"/><use fill="#FFF" xlink:href="#b"/><use fill="#000" filter="url(#c)" xlink:href="#d"/><use fill="#00252E" xlink:href="#d"/><rect width="137.008" height="16.433" x="49.323" y="13.694" fill="#E1E8EE" rx="3.425"/><g fill="#D8D8D8" transform="translate(591.874 15.064)"><rect width="21.921" height="2.739" rx="1.369"/><rect width="21.921" height="2.739" y="5.478" rx="1.369"/><rect width="21.921" height="2.739" y="10.956" rx="1.369"/></g><g transform="translate(49.323 94.492)"><ellipse cx="32.882" cy="32.867" fill="url(#e)" rx="32.882" ry="32.867"/><g fill="#E1E8EE" transform="translate(104.126 8.217)"><rect width="78.78" height="10.956" rx="2.055"/><rect width="274.016" height="5.478" y="21.911" rx="2.055"/><rect width="251.181" height="5.478" y="32.867" rx="2.055"/><rect width="228.346" height="5.478" y="43.822" rx="2.055"/></g><g fill="#A7B9C8" transform="translate(411.024 24.65)"><ellipse cx="8.22" cy="8.217" rx="8.22" ry="8.217"/><ellipse cx="52.063" cy="8.217" rx="8.22" ry="8.217"/><ellipse cx="30.142" cy="8.217" rx="8.22" ry="8.217"/><ellipse cx="73.984" cy="8.217" rx="8.22" ry="8.217"/><ellipse cx="95.906" cy="8.217" rx="8.22" ry="8.217"/></g></g><g transform="translate(49.323 187.614)"><ellipse cx="30.827" cy="30.813" fill="url(#f)" rx="30.827" ry="30.813"/><g fill="#E1E8EE" transform="translate(102.07 6.162)"><rect width="78.78" height="10.956" rx="2.055"/><rect width="274.016" height="5.478" y="21.911" rx="2.055"/><rect width="251.181" height="5.478" y="32.867" rx="2.055"/><rect width="228.346" height="5.478" y="43.822" rx="2.055"/></g><g fill="#A7B9C8" transform="translate(408.969 22.596)"><ellipse cx="8.22" cy="8.217" rx="8.22" ry="8.217"/><ellipse cx="52.063" cy="8.217" rx="8.22" ry="8.217"/><ellipse cx="30.142" cy="8.217" rx="8.22" ry="8.217"/></g></g><g transform="translate(49.323 285.53)"><ellipse cx="30.827" cy="30.813" fill="url(#g)" rx="30.827" ry="30.813"/><g fill="#E1E8EE" transform="translate(102.07 6.162)"><rect width="78.78" height="10.956" rx="2.055"/><rect width="274.016" height="5.478" y="21.911" rx="2.055"/><rect width="251.181" height="5.478" y="32.867" rx="2.055"/><rect width="228.346" height="5.478" y="43.822" rx="2.055"/></g><g fill="#A7B9C8" transform="translate(408.969 22.596)"><ellipse cx="8.22" cy="8.217" rx="8.22" ry="8.217"/><ellipse cx="52.063" cy="8.217" rx="8.22" ry="8.217"/><ellipse cx="30.142" cy="8.217" rx="8.22" ry="8.217"/><ellipse cx="73.984" cy="8.217" rx="8.22" ry="8.217"/></g></g></g><g transform="translate(483.787 149.422)"><use fill="#000" filter="url(#h)" xlink:href="#i"/><use fill="#FFF" xlink:href="#i"/></g><g transform="translate(483.787 149.422)"><use fill="#000" filter="url(#j)" xlink:href="#k"/><use fill="#00252E" xlink:href="#k"/></g><g transform="translate(505.8 162.277)"><rect width="71.244" height="14.023" fill="#E1E8EE" rx="2.923"/><g fill="#D8D8D8" transform="translate(155.111 1.169)"><rect width="18.706" height="2.337" rx="1.169"/><rect width="18.706" height="2.337" y="4.674" rx="1.169"/><rect width="18.706" height="2.337" y="9.349" rx="1.169"/></g></g><g transform="translate(505.709 223.372)"><ellipse cx="10.276" cy="10.271" fill="url(#e)" rx="10.276" ry="10.271"/><g fill="#E1E8EE" transform="translate(31.512 2.054)"><rect width="39.39" height="3.652" rx=".63"/><rect width="137.008" height="1.826" y="7.304" rx=".63"/><rect width="125.591" height="1.826" y="10.956" rx=".63"/><rect width="114.173" height="1.826" y="14.607" rx=".63"/></g></g><g transform="translate(505.709 317.864)"><ellipse cx="10.276" cy="10.271" fill="url(#e)" rx="10.276" ry="10.271"/><g fill="#E1E8EE" transform="translate(31.512 2.054)"><rect width="39.39" height="3.652" rx=".63"/><rect width="137.008" height="1.826" y="7.304" rx=".63"/><rect width="125.591" height="1.826" y="10.956" rx=".63"/><rect width="114.173" height="1.826" y="14.607" rx=".63"/></g></g><g transform="translate(505.709 254.87)"><g fill="#E1E8EE" transform="translate(31.512 2.054)"><rect width="39.39" height="3.652" rx=".63"/><rect width="137.008" height="1.826" y="7.304" rx=".63"/><rect width="125.591" height="1.826" y="10.956" rx=".63"/><rect width="114.173" height="1.826" y="14.607" rx=".63"/></g><ellipse cx="10.276" cy="10.271" fill="url(#f)" rx="10.276" ry="10.271"/></g><g transform="translate(505.709 349.361)"><g fill="#E1E8EE" transform="translate(31.512 2.054)"><rect width="39.39" height="3.652" rx=".63"/><rect width="137.008" height="1.826" y="7.304" rx=".63"/><rect width="125.591" height="1.826" y="10.956" rx=".63"/><rect width="114.173" height="1.826" y="14.607" rx=".63"/></g><ellipse cx="10.276" cy="10.271" fill="url(#f)" rx="10.276" ry="10.271"/></g><g transform="translate(505.709 286.367)"><g fill="#E1E8EE" transform="translate(31.512 2.054)"><rect width="39.39" height="3.652" rx=".63"/><rect width="137.008" height="1.826" y="7.304" rx=".63"/><rect width="125.591" height="1.826" y="10.956" rx=".63"/><rect width="114.173" height="1.826" y="14.607" rx=".63"/></g><ellipse cx="10.276" cy="10.271" fill="url(#g)" rx="10.276" ry="10.271"/></g><g transform="translate(505.709 380.858)"><g fill="#E1E8EE" transform="translate(31.512 2.054)"><rect width="39.39" height="3.652" rx=".63"/><rect width="137.008" height="1.826" y="7.304" rx=".63"/><rect width="125.591" height="1.826" y="10.956" rx=".63"/><rect width="114.173" height="1.826" y="14.607" rx=".63"/></g><ellipse cx="10.276" cy="10.271" fill="url(#g)" rx="10.276" ry="10.271"/></g><g transform="translate(505.709 412.356)"><ellipse cx="10.276" cy="10.271" fill="url(#e)" rx="10.276" ry="10.271"/><g fill="#E1E8EE" transform="translate(31.512 2.054)"><rect width="39.39" height="3.652" rx=".63"/><rect width="137.008" height="1.826" y="7.304" rx=".63"/><rect width="125.591" height="1.826" y="10.956" rx=".63"/><rect width="114.173" height="1.826" y="14.607" rx=".63"/></g></g><g transform="translate(505.709 443.853)"><g fill="#E1E8EE" transform="translate(31.512 2.054)"><rect width="39.39" height="3.652" rx=".63"/><rect width="137.008" height="1.826" y="7.304" rx=".63"/><rect width="125.591" height="1.826" y="10.956" rx=".63"/><rect width="114.173" height="1.826" y="14.607" rx=".63"/></g><ellipse cx="10.276" cy="10.271" fill="url(#f)" rx="10.276" ry="10.271"/></g></g></svg>